<?xml version="1.0" standalone="no"?>
<!DOCTYPE svg PUBLIC "-//W3C//DTD SVG 20010904//EN"
 "http://www.w3.org/TR/2001/REC-SVG-20010904/DTD/svg10.dtd">
<svg version="1.0" xmlns="http://www.w3.org/2000/svg"
 width="1672.000000pt" height="1672.000000pt" viewBox="0 0 1672.000000 1672.000000"
 preserveAspectRatio="xMidYMid meet">
<metadata>
Created by potrace 1.14, written by Peter Selinger 2001-2017
</metadata>
<g transform="translate(0.000000,1672.000000) scale(0.100000,-0.100000)"
fill="#000000" stroke="none">
<path d="M660 13660 l0 -80 40 0 40 0 0 40 0 40 40 0 40 0 0 40 0 40 -80 0
-80 0 0 -80z"/>
<path d="M900 13700 l0 -40 80 0 80 0 0 40 0 40 -80 0 -80 0 0 -40z"/>
<path d="M1140 13700 l0 -40 80 0 80 0 0 40 0 40 -80 0 -80 0 0 -40z"/>
<path d="M1370 13700 l0 -40 85 0 85 0 0 40 0 40 -85 0 -85 0 0 -40z"/>
<path d="M1610 13700 l0 -40 80 0 80 0 0 40 0 40 -80 0 -80 0 0 -40z"/>
<path d="M1850 13700 l0 -40 80 0 80 0 0 40 0 40 -80 0 -80 0 0 -40z"/>
<path d="M2090 13700 l0 -40 80 0 80 0 0 40 0 40 -80 0 -80 0 0 -40z"/>
<path d="M2330 13700 l0 -40 80 0 80 0 0 40 0 40 -80 0 -80 0 0 -40z"/>
<path d="M2560 13700 l0 -40 85 0 85 0 0 40 0 40 -85 0 -85 0 0 -40z"/>
<path d="M2800 13700 l0 -40 80 0 80 0 0 40 0 40 -80 0 -80 0 0 -40z"/>
<path d="M3040 13700 l0 -40 80 0 80 0 0 40 0 40 -80 0 -80 0 0 -40z"/>
<path d="M3280 13700 l0 -40 80 0 80 0 0 40 0 40 -80 0 -80 0 0 -40z"/>
<path d="M3520 13700 l0 -40 80 0 80 0 0 40 0 40 -80 0 -80 0 0 -40z"/>
<path d="M3750 13700 l0 -40 85 0 85 0 0 40 0 40 -85 0 -85 0 0 -40z"/>
<path d="M3990 13700 l0 -40 85 0 85 0 0 40 0 40 -85 0 -85 0 0 -40z"/>
<path d="M4230 13700 l0 -40 80 0 80 0 0 40 0 40 -80 0 -80 0 0 -40z"/>
<path d="M4470 13700 l0 -40 80 0 80 0 0 40 0 40 -80 0 -80 0 0 -40z"/>
<path d="M4710 13700 l0 -40 80 0 80 0 0 40 0 40 -80 0 -80 0 0 -40z"/>
<path d="M4950 13700 l0 -40 80 0 80 0 0 40 0 40 -80 0 -80 0 0 -40z"/>
<path d="M5180 13700 l0 -40 85 0 85 0 0 40 0 40 -85 0 -85 0 0 -40z"/>
<path d="M5420 13700 l0 -40 80 0 80 0 0 40 0 40 -80 0 -80 0 0 -40z"/>
<path d="M5660 13700 l0 -40 80 0 80 0 0 40 0 40 -80 0 -80 0 0 -40z"/>
<path d="M5900 13700 l0 -40 80 0 80 0 0 40 0 40 -80 0 -80 0 0 -40z"/>
<path d="M6140 13700 l0 -40 80 0 80 0 0 40 0 40 -80 0 -80 0 0 -40z"/>
<path d="M6370 13700 l0 -40 85 0 85 0 0 40 0 40 -85 0 -85 0 0 -40z"/>
<path d="M6610 13700 l0 -40 85 0 85 0 0 40 0 40 -85 0 -85 0 0 -40z"/>
<path d="M6850 13700 l0 -40 80 0 80 0 0 40 0 40 -80 0 -80 0 0 -40z"/>
<path d="M7090 13700 l0 -40 80 0 80 0 0 40 0 40 -80 0 -80 0 0 -40z"/>
<path d="M7330 13700 l0 -40 80 0 80 0 0 40 0 40 -80 0 -80 0 0 -40z"/>
<path d="M7570 13700 l0 -40 80 0 80 0 0 40 0 40 -80 0 -80 0 0 -40z"/>
<path d="M7800 13700 l0 -40 85 0 85 0 0 40 0 40 -85 0 -85 0 0 -40z"/>
<path d="M8040 13700 l0 -40 80 0 80 0 0 40 0 40 -80 0 -80 0 0 -40z"/>
<path d="M8280 13700 l0 -40 80 0 80 0 0 40 0 40 -80 0 -80 0 0 -40z"/>
<path d="M8520 13700 l0 -40 80 0 80 0 0 40 0 40 -80 0 -80 0 0 -40z"/>
<path d="M8760 13700 l0 -40 80 0 80 0 0 40 0 40 -80 0 -80 0 0 -40z"/>
<path d="M8990 13700 l0 -40 85 0 85 0 0 40 0 40 -85 0 -85 0 0 -40z"/>
<path d="M9230 13700 l0 -40 80 0 80 0 0 40 0 40 -80 0 -80 0 0 -40z"/>
<path d="M9470 13700 l0 -40 80 0 80 0 0 40 0 40 -80 0 -80 0 0 -40z"/>
<path d="M9710 13700 l0 -40 80 0 80 0 0 40 0 40 -80 0 -80 0 0 -40z"/>
<path d="M9950 13700 l0 -40 80 0 80 0 0 40 0 40 -80 0 -80 0 0 -40z"/>
<path d="M10180 13700 l0 -40 85 0 85 0 0 40 0 40 -85 0 -85 0 0 -40z"/>
<path d="M10420 13700 l0 -40 85 0 85 0 0 40 0 40 -85 0 -85 0 0 -40z"/>
<path d="M10660 13700 l0 -40 80 0 80 0 0 40 0 40 -80 0 -80 0 0 -40z"/>
<path d="M10900 13700 l0 -40 80 0 80 0 0 40 0 40 -80 0 -80 0 0 -40z"/>
<path d="M11140 13700 l0 -40 80 0 80 0 0 40 0 40 -80 0 -80 0 0 -40z"/>
<path d="M11380 13700 l0 -40 80 0 80 0 0 40 0 40 -80 0 -80 0 0 -40z"/>
<path d="M11610 13700 l0 -40 85 0 85 0 0 40 0 40 -85 0 -85 0 0 -40z"/>
<path d="M11850 13700 l0 -40 80 0 80 0 0 40 0 40 -80 0 -80 0 0 -40z"/>
<path d="M12090 13700 l0 -40 80 0 80 0 0 40 0 40 -80 0 -80 0 0 -40z"/>
<path d="M12330 13700 l0 -40 80 0 80 0 0 40 0 40 -80 0 -80 0 0 -40z"/>
<path d="M12570 13700 l0 -40 80 0 80 0 0 40 0 40 -80 0 -80 0 0 -40z"/>
<path d="M12800 13700 l0 -40 85 0 85 0 0 40 0 40 -85 0 -85 0 0 -40z"/>
<path d="M13040 13700 l0 -40 85 0 85 0 0 40 0 40 -85 0 -85 0 0 -40z"/>
<path d="M13280 13700 l0 -40 80 0 80 0 0 40 0 40 -80 0 -80 0 0 -40z"/>
<path d="M13520 13700 l0 -40 80 0 80 0 0 40 0 40 -80 0 -80 0 0 -40z"/>
<path d="M13760 13700 l0 -40 80 0 80 0 0 40 0 40 -80 0 -80 0 0 -40z"/>
<path d="M14000 13700 l0 -40 80 0 80 0 0 40 0 40 -80 0 -80 0 0 -40z"/>
<path d="M14230 13700 l0 -40 85 0 85 0 0 40 0 40 -85 0 -85 0 0 -40z"/>
<path d="M14470 13700 l0 -40 80 0 80 0 0 40 0 40 -80 0 -80 0 0 -40z"/>
<path d="M14710 13700 l0 -40 80 0 80 0 0 40 0 40 -80 0 -80 0 0 -40z"/>
<path d="M14950 13700 l0 -40 80 0 80 0 0 40 0 40 -80 0 -80 0 0 -40z"/>
<path d="M15190 13700 l0 -40 80 0 80 0 0 40 0 40 -80 0 -80 0 0 -40z"/>
<path d="M15420 13700 l0 -40 85 0 85 0 0 40 0 40 -85 0 -85 0 0 -40z"/>
<path d="M15660 13700 l0 -40 80 0 80 0 0 40 0 40 -80 0 -80 0 0 -40z"/>
<path d="M15900 13700 l0 -40 80 0 80 0 0 40 0 40 -80 0 -80 0 0 -40z"/>
<path d="M16140 13700 l0 -40 40 0 40 0 0 -40 0 -40 40 0 40 0 0 80 0 80 -80
0 -80 0 0 -40z"/>
<path d="M660 13420 l0 -80 40 0 40 0 0 80 0 80 -40 0 -40 0 0 -80z"/>
<path d="M16220 13420 l0 -80 40 0 40 0 0 80 0 80 -40 0 -40 0 0 -80z"/>
<path d="M660 13180 l0 -80 40 0 40 0 0 80 0 80 -40 0 -40 0 0 -80z"/>
<path d="M16220 13180 l0 -80 40 0 40 0 0 80 0 80 -40 0 -40 0 0 -80z"/>
<path d="M3487 13233 c-4 -3 -7 -24 -7 -45 0 -38 0 -38 40 -38 l40 0 0 45 c0
44 0 45 -33 45 -19 0 -37 -3 -40 -7z"/>
<path d="M8611 13212 c-19 -9 -43 -29 -54 -43 -61 -84 -62 -361 -1 -454 34
-53 133 -78 213 -55 89 25 122 102 122 285 0 164 -25 230 -103 271 -38 20
-135 18 -177 -4z m157 -75 c32 -30 44 -87 44 -205 -2 -154 -33 -212 -114 -212
-77 0 -113 87 -106 253 5 117 20 156 70 180 38 19 73 13 106 -16z"/>
<path d="M8125 13208 c-7 -22 -45 -246 -45 -268 0 -30 54 -27 92 5 60 51 160
19 186 -59 34 -104 -68 -202 -161 -155 -29 15 -56 50 -57 72 0 13 -9 17 -40
17 -34 0 -40 -3 -40 -21 0 -71 73 -137 162 -146 90 -9 168 29 205 100 24 48
21 146 -8 199 -42 75 -142 108 -225 73 l-35 -14 7 37 c3 20 9 53 13 72 l7 35
112 3 112 3 0 29 0 30 -140 0 c-104 0 -142 -3 -145 -12z"/>
<path d="M1800 13079 c-14 -5 -35 -20 -47 -31 l-23 -21 0 26 c0 24 -4 27 -35
27 l-35 0 0 -210 0 -210 40 0 40 0 0 146 0 146 34 34 c41 41 92 46 122 13 17
-18 19 -40 22 -180 l3 -159 34 0 33 0 4 148 c4 156 11 181 55 201 37 17 81 13
103 -9 18 -18 20 -33 20 -180 l0 -160 40 0 40 0 0 173 c0 153 -2 176 -20 204
-39 65 -163 71 -227 11 l-22 -20 -24 27 c-19 23 -33 29 -78 31 -30 2 -65 -1
-79 -7z"/>
<path d="M2441 13080 c-48 -11 -92 -59 -94 -101 -2 -32 0 -34 31 -37 29 -3 34
0 44 28 12 35 41 50 96 50 46 0 82 -24 82 -54 0 -35 -18 -44 -112 -62 -108
-20 -143 -41 -159 -94 -10 -31 -10 -49 0 -81 10 -34 19 -44 58 -61 57 -25 138
-20 182 11 36 26 37 26 44 1 6 -22 46 -35 82 -26 20 5 25 13 25 36 0 23 -5 30
-19 30 -18 0 -19 10 -23 148 -2 108 -7 153 -18 169 -29 45 -128 64 -219 43z
m154 -287 c-8 -43 -54 -73 -111 -73 -45 0 -69 14 -78 46 -12 39 23 65 110 83
89 19 93 16 79 -56z"/>
<path d="M2925 13078 c-11 -6 -35 -24 -52 -41 l-33 -31 0 37 c0 36 -1 37 -35
37 l-35 0 0 -210 0 -210 40 0 40 0 0 120 c0 168 22 212 113 227 35 5 37 7 37
44 0 36 -2 39 -27 39 -16 0 -37 -6 -48 -12z"/>
<path d="M3114 13076 c-71 -31 -114 -108 -114 -206 0 -102 53 -188 126 -206
49 -13 133 1 159 26 l25 23 0 -35 c0 -47 -37 -100 -80 -114 -45 -15 -99 -2
-127 30 -16 19 -32 26 -58 26 -33 0 -36 -2 -30 -22 22 -72 74 -101 180 -102
88 -1 131 21 163 84 21 42 22 56 22 272 l0 228 -35 0 c-28 0 -35 -4 -35 -20 0
-18 -2 -18 -36 5 -42 29 -109 33 -160 11z m135 -71 c56 -28 74 -143 36 -220
-26 -52 -84 -76 -130 -54 -44 22 -68 62 -73 122 -6 73 12 124 52 148 37 23 77
24 115 4z"/>
<path d="M3785 13074 c-16 -9 -36 -23 -42 -32 -11 -14 -13 -12 -13 12 0 25 -3
27 -37 24 l-38 -3 -3 -207 -2 -208 40 0 40 0 0 123 c0 67 5 139 11 160 20 71
115 102 164 52 24 -24 25 -28 25 -180 l0 -156 38 3 37 3 -1 165 c0 187 -8 216
-68 244 -43 20 -112 20 -151 0z"/>
<path d="M3480 12870 l0 -210 40 0 40 0 0 210 0 210 -40 0 -40 0 0 -210z"/>
<path d="M660 12940 l0 -80 40 0 40 0 0 80 0 80 -40 0 -40 0 0 -80z"/>
<path d="M16220 12940 l0 -80 40 0 40 0 0 80 0 80 -40 0 -40 0 0 -80z"/>
<path d="M660 12700 l0 -80 40 0 40 0 0 80 0 80 -40 0 -40 0 0 -80z"/>
<path d="M16220 12700 l0 -80 40 0 40 0 0 80 0 80 -40 0 -40 0 0 -80z"/>
<path d="M660 12460 l0 -80 40 0 40 0 0 80 0 80 -40 0 -40 0 0 -80z"/>
<path d="M16220 12460 l0 -80 40 0 40 0 0 80 0 80 -40 0 -40 0 0 -80z"/>
<path d="M660 12220 l0 -80 40 0 40 0 0 80 0 80 -40 0 -40 0 0 -80z"/>
<path d="M16220 12220 l0 -80 40 0 40 0 0 80 0 80 -40 0 -40 0 0 -80z"/>
<path d="M2340 8380 l0 -3840 6140 0 6140 0 0 3840 0 3840 -6140 0 -6140 0 0
-3840z m12200 0 l0 -3760 -6060 0 -6060 0 0 3760 0 3760 6060 0 6060 0 0
-3760z"/>
<path d="M3360 11430 l0 -290 35 0 c27 0 35 4 35 19 0 17 3 17 47 -5 88 -45
188 -21 240 57 26 39 28 51 28 133 0 109 -18 155 -78 194 -34 23 -52 27 -108
27 -54 0 -73 -4 -98 -23 l-31 -23 0 101 0 100 -35 0 -35 0 0 -290z m249 55
c55 -28 79 -141 47 -219 -39 -94 -171 -88 -212 10 -56 134 50 269 165 209z"/>
<path d="M4840 11621 l0 -98 -47 23 c-88 45 -188 21 -240 -57 -26 -39 -28 -51
-28 -133 0 -109 18 -155 78 -194 34 -23 52 -27 108 -27 54 0 73 4 98 23 30 22
31 22 31 2 0 -16 6 -20 35 -20 l35 0 0 290 0 290 -35 0 -35 0 0 -99z m-55
-143 c100 -78 55 -278 -62 -278 -81 0 -123 51 -123 150 0 100 39 150 116 150
27 0 51 -7 69 -22z"/>
<path d="M8345 11678 c-9 -45 -45 -253 -45 -265 0 -23 60 -15 92 12 57 48 149
26 182 -42 42 -88 -11 -183 -103 -183 -47 0 -79 20 -98 61 -16 35 -22 39 -56
39 -38 0 -39 0 -32 -32 17 -81 74 -127 166 -136 150 -14 256 126 205 271 -18
50 -42 76 -91 98 -49 23 -104 24 -151 4 -33 -13 -35 -13 -30 3 2 9 7 35 11 57
12 80 4 75 131 75 l114 0 0 30 0 30 -145 0 c-142 0 -145 0 -150 -22z"/>
<path d="M3925 11551 c-49 -23 -88 -65 -104 -110 -15 -47 -14 -152 3 -192 51
-122 225 -157 325 -66 82 75 82 259 0 334 -58 53 -152 67 -224 34z m162 -85
c34 -31 37 -39 41 -98 7 -106 -38 -169 -120 -168 -74 1 -118 54 -118 143 0
101 44 156 123 157 29 0 46 -8 74 -34z"/>
<path d="M4434 11556 c-17 -8 -40 -26 -52 -41 l-22 -28 0 37 c0 35 -1 36 -35
36 l-35 0 0 -210 0 -210 35 0 35 0 0 118 c0 142 18 194 74 217 20 8 45 15 56
15 17 0 20 6 20 40 0 35 -3 40 -22 40 -13 -1 -37 -7 -54 -14z"/>
<path d="M5099 11547 c-144 -76 -143 -322 1 -394 85 -44 198 -18 247 56 34 51
31 71 -12 71 -28 0 -37 -5 -45 -24 -29 -77 -165 -74 -205 4 -8 16 -15 38 -15
50 0 19 5 20 156 20 l157 0 -7 51 c-12 91 -49 145 -119 174 -52 21 -107 19
-158 -8z m140 -62 c24 -12 61 -67 61 -89 0 -3 -52 -6 -116 -6 -102 0 -115 2
-110 16 3 9 6 20 6 26 0 5 14 23 31 39 35 33 82 38 128 14z"/>
<path d="M5584 11556 c-17 -8 -40 -27 -52 -42 l-21 -29 -1 38 c0 36 -1 37 -35
37 l-35 0 0 -211 0 -210 38 3 37 3 5 137 c5 128 7 138 30 163 14 14 44 31 67
38 41 11 43 13 43 49 0 33 -3 38 -22 38 -13 -1 -37 -7 -54 -14z"/>
<path d="M3600 10620 l0 -80 40 0 40 0 0 40 0 40 40 0 40 0 0 40 0 40 -80 0
-80 0 0 -80z"/>
<path d="M3840 10660 l0 -40 80 0 80 0 0 40 0 40 -80 0 -80 0 0 -40z"/>
<path d="M4080 10660 l0 -40 80 0 80 0 0 40 0 40 -80 0 -80 0 0 -40z"/>
<path d="M4320 10660 l0 -40 80 0 80 0 0 40 0 40 -80 0 -80 0 0 -40z"/>
<path d="M4560 10660 l0 -40 80 0 80 0 0 40 0 40 -80 0 -80 0 0 -40z"/>
<path d="M4800 10660 l0 -40 80 0 80 0 0 40 0 40 -80 0 -80 0 0 -40z"/>
<path d="M5040 10660 l0 -40 80 0 80 0 0 40 0 40 -80 0 -80 0 0 -40z"/>
<path d="M5280 10660 l0 -40 80 0 80 0 0 40 0 40 -80 0 -80 0 0 -40z"/>
<path d="M5520 10660 l0 -40 80 0 80 0 0 40 0 40 -80 0 -80 0 0 -40z"/>
<path d="M5760 10660 l0 -40 80 0 80 0 0 40 0 40 -80 0 -80 0 0 -40z"/>
<path d="M6000 10660 l0 -40 80 0 80 0 0 40 0 40 -80 0 -80 0 0 -40z"/>
<path d="M6240 10660 l0 -40 80 0 80 0 0 40 0 40 -80 0 -80 0 0 -40z"/>
<path d="M6480 10660 l0 -40 80 0 80 0 0 40 0 40 -80 0 -80 0 0 -40z"/>
<path d="M6720 10660 l0 -40 80 0 80 0 0 40 0 40 -80 0 -80 0 0 -40z"/>
<path d="M6960 10660 l0 -40 80 0 80 0 0 40 0 40 -80 0 -80 0 0 -40z"/>
<path d="M7200 10660 l0 -40 80 0 80 0 0 40 0 40 -80 0 -80 0 0 -40z"/>
<path d="M7440 10660 l0 -40 80 0 80 0 0 40 0 40 -80 0 -80 0 0 -40z"/>
<path d="M7680 10660 l0 -40 80 0 80 0 0 40 0 40 -80 0 -80 0 0 -40z"/>
<path d="M7920 10660 l0 -40 80 0 80 0 0 40 0 40 -80 0 -80 0 0 -40z"/>
<path d="M8160 10660 l0 -40 80 0 80 0 0 40 0 40 -80 0 -80 0 0 -40z"/>
<path d="M8400 10660 l0 -40 80 0 80 0 0 40 0 40 -80 0 -80 0 0 -40z"/>
<path d="M8640 10660 l0 -40 80 0 80 0 0 40 0 40 -80 0 -80 0 0 -40z"/>
<path d="M8880 10660 l0 -40 80 0 80 0 0 40 0 40 -80 0 -80 0 0 -40z"/>
<path d="M9120 10660 l0 -40 80 0 80 0 0 40 0 40 -80 0 -80 0 0 -40z"/>
<path d="M9360 10660 l0 -40 80 0 80 0 0 40 0 40 -80 0 -80 0 0 -40z"/>
<path d="M9600 10660 l0 -40 80 0 80 0 0 40 0 40 -80 0 -80 0 0 -40z"/>
<path d="M9840 10660 l0 -40 80 0 80 0 0 40 0 40 -80 0 -80 0 0 -40z"/>
<path d="M10080 10660 l0 -40 80 0 80 0 0 40 0 40 -80 0 -80 0 0 -40z"/>
<path d="M10320 10660 l0 -40 80 0 80 0 0 40 0 40 -80 0 -80 0 0 -40z"/>
<path d="M10560 10660 l0 -40 80 0 80 0 0 40 0 40 -80 0 -80 0 0 -40z"/>
<path d="M10800 10660 l0 -40 80 0 80 0 0 40 0 40 -80 0 -80 0 0 -40z"/>
<path d="M11040 10660 l0 -40 80 0 80 0 0 40 0 40 -80 0 -80 0 0 -40z"/>
<path d="M11280 10660 l0 -40 80 0 80 0 0 40 0 40 -80 0 -80 0 0 -40z"/>
<path d="M11520 10660 l0 -40 80 0 80 0 0 40 0 40 -80 0 -80 0 0 -40z"/>
<path d="M11760 10660 l0 -40 80 0 80 0 0 40 0 40 -80 0 -80 0 0 -40z"/>
<path d="M12000 10660 l0 -40 80 0 80 0 0 40 0 40 -80 0 -80 0 0 -40z"/>
<path d="M12240 10660 l0 -40 80 0 80 0 0 40 0 40 -80 0 -80 0 0 -40z"/>
<path d="M12480 10660 l0 -40 80 0 80 0 0 40 0 40 -80 0 -80 0 0 -40z"/>
<path d="M12720 10660 l0 -40 80 0 80 0 0 40 0 40 -80 0 -80 0 0 -40z"/>
<path d="M12960 10660 l0 -40 80 0 80 0 0 40 0 40 -80 0 -80 0 0 -40z"/>
<path d="M13200 10660 l0 -40 40 0 40 0 0 -40 0 -40 40 0 40 0 0 80 0 80 -80
0 -80 0 0 -40z"/>
<path d="M3600 10385 l0 -75 40 0 40 0 0 75 0 75 -40 0 -40 0 0 -75z"/>
<path d="M13280 10385 l0 -75 40 0 40 0 0 75 0 75 -40 0 -40 0 0 -75z"/>
<path d="M3600 10150 l0 -80 40 0 40 0 0 80 0 80 -40 0 -40 0 0 -80z"/>
<path d="M13280 10150 l0 -80 40 0 40 0 0 80 0 80 -40 0 -40 0 0 -80z"/>
<path d="M5807 10193 c-4 -3 -7 -48 -7 -100 l0 -94 -29 22 c-36 26 -115 36
-164 20 -47 -16 -103 -79 -117 -133 -16 -57 -9 -144 15 -192 11 -22 37 -54 58
-70 35 -28 46 -31 110 -31 53 0 79 5 100 19 24 16 27 16 27 2 0 -12 10 -16 40
-16 l40 0 0 290 0 290 -33 0 c-19 0 -37 -3 -40 -7z m-67 -228 c41 -21 60 -63
60 -135 0 -105 -49 -158 -134 -147 -106 14 -144 181 -61 264 38 38 85 44 135
18z"/>
<path d="M6280 10100 c0 -60 -4 -100 -10 -100 -5 0 -10 4 -10 9 0 5 -20 17
-45 26 -64 25 -135 16 -182 -22 -57 -46 -78 -95 -77 -183 0 -114 43 -182 131
-211 49 -16 128 -6 164 20 29 21 29 21 29 1 0 -16 6 -20 35 -20 l35 0 0 290 0
290 -35 0 -35 0 0 -100z m-70 -135 c41 -21 63 -69 63 -135 0 -89 -33 -138
-101 -147 -82 -11 -136 48 -135 148 1 120 81 182 173 134z"/>
<path d="M6457 10193 c-4 -3 -7 -24 -7 -45 0 -38 0 -38 40 -38 l40 0 0 45 c0
44 0 45 -33 45 -19 0 -37 -3 -40 -7z"/>
<path d="M8129 10188 c-8 -26 -54 -300 -50 -303 13 -14 66 -2 93 20 66 56 181
10 188 -76 5 -61 -1 -82 -34 -115 -26 -26 -42 -34 -71 -34 -58 0 -114 40 -115
83 0 13 -9 17 -41 17 l-42 0 6 -35 c26 -163 284 -184 365 -30 25 48 21 142 -9
195 -41 77 -157 114 -231 76 -16 -8 -28 -12 -27 -8 0 4 6 36 13 72 l12 65 118
3 117 3 -3 32 -3 32 -142 3 c-79 1 -143 1 -144 0z"/>
<path d="M8615 10176 c-68 -30 -95 -93 -103 -233 -9 -178 24 -278 102 -314
102 -46 220 -7 256 86 19 48 29 178 21 264 -15 150 -70 211 -187 211 -33 -1
-72 -7 -89 -14z m153 -79 c33 -35 42 -79 42 -202 -1 -156 -30 -215 -107 -215
-71 0 -104 58 -111 191 -8 172 27 249 113 249 31 0 47 -6 63 -23z"/>
<path d="M4745 10043 c-10 -3 -29 -12 -42 -20 -21 -14 -23 -14 -23 1 0 12 -10
16 -40 16 l-40 0 0 -291 0 -290 38 3 37 3 3 98 3 97 29 -21 c35 -26 114 -36
163 -20 47 16 103 79 118 133 15 55 6 148 -18 195 -11 20 -36 50 -56 67 -30
24 -48 30 -95 32 -31 2 -66 0 -77 -3z m132 -97 c79 -92 33 -266 -71 -266 -83
0 -128 53 -128 150 0 102 47 154 132 146 32 -3 50 -11 67 -30z"/>
<path d="M5169 10040 c-62 -18 -99 -62 -99 -115 0 -22 5 -25 34 -25 29 0 36 5
45 30 22 66 161 67 178 2 9 -36 -12 -49 -106 -66 -128 -24 -171 -58 -171 -134
0 -105 120 -156 233 -98 l47 23 15 -23 c15 -24 54 -31 89 -18 24 9 21 64 -3
64 -26 0 -31 26 -31 170 0 141 -8 162 -66 186 -36 15 -122 17 -165 4z m157
-274 c-9 -48 -46 -78 -105 -84 -40 -3 -52 -1 -70 17 -48 48 -14 88 97 111 86
17 89 16 78 -44z"/>
<path d="M6765 10038 c-11 -6 -30 -20 -42 -31 l-23 -20 0 26 c0 24 -4 27 -35
27 l-35 0 0 -210 0 -210 34 0 34 0 4 138 c3 80 10 148 17 163 29 59 113 77
156 34 24 -24 25 -28 25 -180 l0 -155 41 0 41 0 -4 173 c-3 194 -10 216 -73
243 -41 17 -112 18 -140 2z"/>
<path d="M7165 10036 c-91 -41 -137 -170 -105 -288 13 -45 52 -93 92 -114 47
-24 129 -21 174 6 l37 24 -6 -45 c-8 -64 -50 -99 -118 -99 -44 0 -55 4 -79 30
-37 40 -90 43 -90 6 0 -39 52 -83 114 -97 101 -22 188 8 230 81 19 32 21 54
24 268 l4 232 -41 0 c-35 0 -41 -3 -41 -21 0 -19 -1 -19 -17 -4 -36 36 -121
46 -178 21z m130 -68 c89 -40 82 -235 -10 -274 -90 -37 -170 50 -151 168 16
98 82 142 161 106z"/>
<path d="M6450 9830 l0 -210 40 0 40 0 0 210 0 210 -40 0 -40 0 0 -210z"/>
<path d="M3600 9910 l0 -80 40 0 40 0 0 80 0 80 -40 0 -40 0 0 -80z"/>
<path d="M13280 9910 l0 -80 40 0 40 0 0 80 0 80 -40 0 -40 0 0 -80z"/>
<path d="M3600 9680 l0 -80 40 0 40 0 0 80 0 80 -40 0 -40 0 0 -80z"/>
<path d="M13280 9680 l0 -80 40 0 40 0 0 80 0 80 -40 0 -40 0 0 -80z"/>
<path d="M3600 9440 l0 -80 40 0 40 0 0 80 0 80 -40 0 -40 0 0 -80z"/>
<path d="M13280 9440 l0 -80 40 0 40 0 0 80 0 80 -40 0 -40 0 0 -80z"/>
<path d="M3600 9205 l0 -75 40 0 40 0 0 75 0 75 -40 0 -40 0 0 -75z"/>
<path d="M13280 9205 l0 -75 40 0 40 0 0 75 0 75 -40 0 -40 0 0 -75z"/>
<path d="M5280 8380 l0 -800 3200 0 3200 0 0 800 0 800 -3200 0 -3200 0 0
-800z m6320 0 l0 -720 -3120 0 -3120 0 0 720 0 720 3120 0 3120 0 0 -720z"/>
<path d="M7294 8670 c-112 -26 -169 -136 -134 -260 11 -41 61 -94 103 -109 62
-24 126 -12 176 33 l23 21 -7 -45 c-10 -64 -41 -125 -71 -138 -52 -24 -106 -7
-134 43 -13 24 -23 30 -51 30 -32 0 -34 -2 -32 -30 5 -67 69 -118 157 -123 54
-4 71 0 106 19 80 45 117 155 108 322 -8 147 -50 214 -149 236 -50 12 -52 12
-95 1z m116 -98 c73 -74 28 -207 -70 -207 -96 0 -141 135 -69 211 33 36 101
34 139 -4z"/>
<path d="M7721 8493 c-112 -160 -131 -193 -131 -225 l0 -38 125 0 125 0 0 -65
0 -65 35 0 35 0 0 65 0 65 40 0 c39 0 40 1 40 35 0 34 -1 35 -40 35 l-40 0 0
190 0 190 -29 0 c-27 0 -41 -17 -160 -187z m119 -68 l0 -125 -86 0 c-47 0 -84
3 -82 8 6 14 161 242 165 242 1 0 3 -56 3 -125z"/>
<path d="M9160 8649 c-20 -43 -57 -69 -108 -76 -40 -5 -42 -7 -42 -39 l0 -34
70 0 70 0 0 -200 0 -200 40 0 40 0 -2 288 -3 287 -25 3 c-21 2 -29 -4 -40 -29z"/>
<path d="M9572 8668 c-29 -6 -57 -23 -82 -48 -55 -55 -75 -125 -74 -263 1 -98
3 -112 30 -164 37 -73 85 -103 164 -103 97 0 159 43 188 129 29 86 -4 186 -75
228 -37 22 -53 25 -106 21 -44 -2 -72 -10 -94 -26 l-30 -21 8 44 c17 92 56
135 122 135 40 0 87 -34 87 -65 0 -11 11 -15 40 -15 34 0 40 3 40 21 0 36 -31
88 -64 108 -40 24 -100 32 -154 19z m98 -285 c36 -21 50 -52 50 -109 0 -39 -5
-51 -34 -80 -26 -26 -42 -34 -71 -34 -29 0 -45 8 -71 34 -29 29 -34 41 -34 80
0 56 14 88 48 109 35 21 77 21 112 0z"/>
<path d="M10008 8670 c-44 -8 -82 -32 -104 -66 -55 -84 -58 -331 -6 -433 56
-107 258 -107 314 0 57 110 45 380 -20 452 -37 41 -114 61 -184 47z m110 -92
c36 -39 45 -78 45 -194 -1 -160 -32 -224 -111 -224 -71 0 -105 70 -106 218 0
111 9 154 40 192 21 25 33 30 68 30 31 0 48 -6 64 -22z"/>
<path d="M6720 8630 l0 -40 140 0 140 0 -46 -62 c-83 -112 -142 -253 -159
-375 l-7 -53 45 0 44 0 7 51 c17 129 84 285 173 403 31 41 43 67 41 85 l-3 26
-187 3 -188 2 0 -40z"/>
<path d="M8305 8470 c-19 -21 -18 -22 53 -93 l72 -72 -72 -72 c-71 -71 -71
-73 -53 -93 10 -11 23 -20 29 -20 6 0 41 30 78 67 l68 67 68 -67 c37 -37 72
-67 78 -67 6 0 19 9 29 20 19 21 18 22 -53 93 l-72 72 72 72 c71 71 71 73 53
93 -10 11 -23 20 -29 20 -6 0 -41 -30 -78 -67 l-68 -67 -68 67 c-37 37 -72 67
-78 67 -6 0 -19 -9 -29 -20z"/>
<path d="M3600 8970 l0 -80 40 0 40 0 0 80 0 80 -40 0 -40 0 0 -80z"/>
<path d="M13280 8970 l0 -80 40 0 40 0 0 80 0 80 -40 0 -40 0 0 -80z"/>
<path d="M3600 8735 l0 -75 40 0 40 0 0 75 0 75 -40 0 -40 0 0 -75z"/>
<path d="M13280 8735 l0 -75 40 0 40 0 0 75 0 75 -40 0 -40 0 0 -75z"/>
<path d="M4265 8646 c-51 -31 -76 -75 -78 -134 l-2 -47 35 0 c32 0 35 3 42 40
12 57 52 95 101 95 49 0 73 -13 93 -52 19 -36 12 -85 -16 -121 -11 -14 -57
-50 -103 -80 -117 -77 -167 -142 -167 -217 l0 -30 185 0 185 0 0 35 0 35 -140
0 c-77 0 -140 4 -140 9 0 18 42 60 92 92 158 98 204 158 196 251 -6 55 -28 92
-78 126 -48 32 -149 31 -205 -2z"/>
<path d="M4717 8648 c-49 -29 -77 -88 -88 -186 -16 -143 8 -276 60 -326 70
-67 226 -57 275 19 61 93 60 370 -1 454 -46 63 -170 82 -246 39z m158 -64 c40
-26 58 -107 53 -228 -6 -138 -39 -196 -111 -196 -77 0 -106 59 -107 215 0 123
9 167 42 202 26 28 86 31 123 7z"/>
<path d="M12035 8646 c-51 -31 -76 -75 -78 -134 l-2 -47 35 0 c32 0 35 3 42
40 12 57 52 95 101 95 49 0 73 -13 93 -52 19 -36 12 -85 -16 -121 -11 -14 -57
-50 -103 -80 -117 -77 -167 -142 -167 -217 l0 -30 185 0 185 0 0 35 0 35 -140
0 c-77 0 -140 4 -140 9 0 18 42 60 92 92 158 98 204 158 196 251 -6 55 -28 92
-78 126 -48 32 -149 31 -205 -2z"/>
<path d="M12487 8648 c-49 -29 -77 -88 -88 -186 -16 -143 8 -276 60 -326 70
-67 226 -57 275 19 61 93 60 370 -1 454 -46 63 -170 82 -246 39z m158 -64 c40
-26 58 -107 53 -228 -6 -138 -39 -196 -111 -196 -77 0 -106 59 -107 215 0 123
9 167 42 202 26 28 86 31 123 7z"/>
<path d="M2995 8648 c-7 -26 -45 -246 -45 -266 0 -18 6 -22 35 -22 19 0 35 4
35 8 0 4 13 15 29 25 96 56 211 -33 182 -140 -13 -46 -19 -54 -51 -76 -59 -41
-169 2 -170 66 0 13 -9 17 -40 17 -34 0 -40 -3 -40 -21 0 -12 7 -37 17 -56 47
-100 216 -123 308 -42 86 76 75 251 -21 310 -47 29 -118 36 -167 16 -42 -18
-42 -20 -24 68 l13 60 112 3 112 3 0 29 0 30 -140 0 c-104 0 -142 -3 -145 -12z"/>
<path d="M13700 8653 c0 -5 -11 -69 -25 -143 -14 -74 -25 -138 -25 -142 0 -18
62 -6 96 17 86 59 194 3 194 -100 0 -75 -47 -125 -116 -125 -49 0 -98 34 -108
75 -5 21 -12 25 -41 25 -32 0 -35 -3 -35 -29 0 -70 91 -141 181 -141 70 0 146
43 176 99 41 78 23 193 -38 247 -48 43 -132 56 -193 30 l-33 -14 7 37 c4 20
11 53 14 74 l7 37 114 0 115 0 0 30 0 30 -145 0 c-80 0 -145 -3 -145 -7z"/>
<path d="M3600 8500 l0 -80 40 0 40 0 0 80 0 80 -40 0 -40 0 0 -80z"/>
<path d="M13280 8500 l0 -80 40 0 40 0 0 80 0 80 -40 0 -40 0 0 -80z"/>
<path d="M3600 8260 l0 -80 40 0 40 0 0 80 0 80 -40 0 -40 0 0 -80z"/>
<path d="M13280 8260 l0 -80 40 0 40 0 0 80 0 80 -40 0 -40 0 0 -80z"/>
<path d="M3600 8025 l0 -75 40 0 40 0 0 75 0 75 -40 0 -40 0 0 -75z"/>
<path d="M13280 8025 l0 -75 40 0 40 0 0 75 0 75 -40 0 -40 0 0 -75z"/>
<path d="M3600 7790 l0 -80 40 0 40 0 0 80 0 80 -40 0 -40 0 0 -80z"/>
<path d="M13280 7790 l0 -80 40 0 40 0 0 80 0 80 -40 0 -40 0 0 -80z"/>
<path d="M3600 7555 l0 -75 40 0 40 0 0 75 0 75 -40 0 -40 0 0 -75z"/>
<path d="M13280 7555 l0 -75 40 0 40 0 0 75 0 75 -40 0 -40 0 0 -75z"/>
<path d="M3600 7320 l0 -80 40 0 40 0 0 80 0 80 -40 0 -40 0 0 -80z"/>
<path d="M13280 7320 l0 -80 40 0 40 0 0 80 0 80 -40 0 -40 0 0 -80z"/>
<path d="M3600 7080 l0 -80 40 0 40 0 0 80 0 80 -40 0 -40 0 0 -80z"/>
<path d="M13280 7080 l0 -80 40 0 40 0 0 80 0 80 -40 0 -40 0 0 -80z"/>
<path d="M8129 7148 c-8 -26 -54 -300 -50 -303 13 -14 66 -2 93 20 66 56 181
10 188 -76 5 -61 -1 -82 -34 -115 -26 -26 -42 -34 -71 -34 -58 0 -114 40 -115
83 0 13 -9 17 -41 17 l-42 0 6 -35 c26 -163 284 -184 365 -30 25 48 21 142 -9
195 -41 77 -157 114 -231 76 -16 -8 -28 -12 -27 -8 0 4 6 36 13 72 l12 65 118
3 117 3 -3 32 -3 32 -142 3 c-79 1 -143 1 -144 0z"/>
<path d="M8615 7136 c-68 -30 -95 -93 -103 -233 -9 -178 24 -278 102 -314 102
-46 220 -7 256 86 19 48 29 178 21 264 -15 150 -70 211 -187 211 -33 -1 -72
-7 -89 -14z m153 -79 c33 -35 42 -79 42 -202 -1 -156 -30 -215 -107 -215 -71
0 -104 58 -111 191 -8 172 27 249 113 249 31 0 47 -6 63 -23z"/>
<path d="M3600 6850 l0 -80 40 0 40 0 0 80 0 80 -40 0 -40 0 0 -80z"/>
<path d="M13280 6850 l0 -80 40 0 40 0 0 80 0 80 -40 0 -40 0 0 -80z"/>
<path d="M3600 6610 l0 -80 40 0 40 0 0 80 0 80 -40 0 -40 0 0 -80z"/>
<path d="M13280 6610 l0 -80 40 0 40 0 0 80 0 80 -40 0 -40 0 0 -80z"/>
<path d="M3600 6375 l0 -75 40 0 40 0 0 75 0 75 -40 0 -40 0 0 -75z"/>
<path d="M13280 6375 l0 -75 40 0 40 0 0 75 0 75 -40 0 -40 0 0 -75z"/>
<path d="M3600 6140 l0 -80 80 0 80 0 0 40 0 40 -40 0 -40 0 0 40 0 40 -40 0
-40 0 0 -80z"/>
<path d="M13280 6180 l0 -40 -40 0 -40 0 0 -40 0 -40 80 0 80 0 0 80 0 80 -40
0 -40 0 0 -40z"/>
<path d="M3840 6100 l0 -40 80 0 80 0 0 40 0 40 -80 0 -80 0 0 -40z"/>
<path d="M4080 6100 l0 -40 80 0 80 0 0 40 0 40 -80 0 -80 0 0 -40z"/>
<path d="M4320 6100 l0 -40 80 0 80 0 0 40 0 40 -80 0 -80 0 0 -40z"/>
<path d="M4560 6100 l0 -40 80 0 80 0 0 40 0 40 -80 0 -80 0 0 -40z"/>
<path d="M4800 6100 l0 -40 80 0 80 0 0 40 0 40 -80 0 -80 0 0 -40z"/>
<path d="M5040 6100 l0 -40 80 0 80 0 0 40 0 40 -80 0 -80 0 0 -40z"/>
<path d="M5280 6100 l0 -40 80 0 80 0 0 40 0 40 -80 0 -80 0 0 -40z"/>
<path d="M5520 6100 l0 -40 80 0 80 0 0 40 0 40 -80 0 -80 0 0 -40z"/>
<path d="M5760 6100 l0 -40 80 0 80 0 0 40 0 40 -80 0 -80 0 0 -40z"/>
<path d="M6000 6100 l0 -40 80 0 80 0 0 40 0 40 -80 0 -80 0 0 -40z"/>
<path d="M6240 6100 l0 -40 80 0 80 0 0 40 0 40 -80 0 -80 0 0 -40z"/>
<path d="M6480 6100 l0 -40 80 0 80 0 0 40 0 40 -80 0 -80 0 0 -40z"/>
<path d="M6720 6100 l0 -40 80 0 80 0 0 40 0 40 -80 0 -80 0 0 -40z"/>
<path d="M6960 6100 l0 -40 80 0 80 0 0 40 0 40 -80 0 -80 0 0 -40z"/>
<path d="M7200 6100 l0 -40 80 0 80 0 0 40 0 40 -80 0 -80 0 0 -40z"/>
<path d="M7440 6100 l0 -40 80 0 80 0 0 40 0 40 -80 0 -80 0 0 -40z"/>
<path d="M7680 6100 l0 -40 80 0 80 0 0 40 0 40 -80 0 -80 0 0 -40z"/>
<path d="M7920 6100 l0 -40 80 0 80 0 0 40 0 40 -80 0 -80 0 0 -40z"/>
<path d="M8160 6100 l0 -40 80 0 80 0 0 40 0 40 -80 0 -80 0 0 -40z"/>
<path d="M8400 6100 l0 -40 80 0 80 0 0 40 0 40 -80 0 -80 0 0 -40z"/>
<path d="M8640 6100 l0 -40 80 0 80 0 0 40 0 40 -80 0 -80 0 0 -40z"/>
<path d="M8880 6100 l0 -40 80 0 80 0 0 40 0 40 -80 0 -80 0 0 -40z"/>
<path d="M9120 6100 l0 -40 80 0 80 0 0 40 0 40 -80 0 -80 0 0 -40z"/>
<path d="M9360 6100 l0 -40 80 0 80 0 0 40 0 40 -80 0 -80 0 0 -40z"/>
<path d="M9600 6100 l0 -40 80 0 80 0 0 40 0 40 -80 0 -80 0 0 -40z"/>
<path d="M9840 6100 l0 -40 80 0 80 0 0 40 0 40 -80 0 -80 0 0 -40z"/>
<path d="M10080 6100 l0 -40 80 0 80 0 0 40 0 40 -80 0 -80 0 0 -40z"/>
<path d="M10320 6100 l0 -40 80 0 80 0 0 40 0 40 -80 0 -80 0 0 -40z"/>
<path d="M10560 6100 l0 -40 80 0 80 0 0 40 0 40 -80 0 -80 0 0 -40z"/>
<path d="M10800 6100 l0 -40 80 0 80 0 0 40 0 40 -80 0 -80 0 0 -40z"/>
<path d="M11040 6100 l0 -40 80 0 80 0 0 40 0 40 -80 0 -80 0 0 -40z"/>
<path d="M11280 6100 l0 -40 80 0 80 0 0 40 0 40 -80 0 -80 0 0 -40z"/>
<path d="M11520 6100 l0 -40 80 0 80 0 0 40 0 40 -80 0 -80 0 0 -40z"/>
<path d="M11760 6100 l0 -40 80 0 80 0 0 40 0 40 -80 0 -80 0 0 -40z"/>
<path d="M12000 6100 l0 -40 80 0 80 0 0 40 0 40 -80 0 -80 0 0 -40z"/>
<path d="M12240 6100 l0 -40 80 0 80 0 0 40 0 40 -80 0 -80 0 0 -40z"/>
<path d="M12480 6100 l0 -40 80 0 80 0 0 40 0 40 -80 0 -80 0 0 -40z"/>
<path d="M12720 6100 l0 -40 80 0 80 0 0 40 0 40 -80 0 -80 0 0 -40z"/>
<path d="M12960 6100 l0 -40 80 0 80 0 0 40 0 40 -80 0 -80 0 0 -40z"/>
<path d="M8345 5598 c-9 -45 -45 -253 -45 -265 0 -23 60 -15 92 12 57 48 149
26 182 -42 42 -88 -11 -183 -103 -183 -47 0 -79 20 -98 61 -16 35 -22 39 -56
39 -38 0 -39 0 -32 -32 17 -81 74 -127 166 -136 150 -14 256 126 205 271 -18
50 -42 76 -91 98 -49 23 -104 24 -151 4 -33 -13 -35 -13 -30 3 2 9 7 35 11 57
12 80 4 75 131 75 l114 0 0 30 0 30 -145 0 c-142 0 -145 0 -150 -22z"/>
<path d="M660 11980 l0 -80 40 0 40 0 0 80 0 80 -40 0 -40 0 0 -80z"/>
<path d="M16220 11980 l0 -80 40 0 40 0 0 80 0 80 -40 0 -40 0 0 -80z"/>
<path d="M660 11740 l0 -80 40 0 40 0 0 80 0 80 -40 0 -40 0 0 -80z"/>
<path d="M16220 11740 l0 -80 40 0 40 0 0 80 0 80 -40 0 -40 0 0 -80z"/>
<path d="M660 11500 l0 -80 40 0 40 0 0 80 0 80 -40 0 -40 0 0 -80z"/>
<path d="M16220 11500 l0 -80 40 0 40 0 0 80 0 80 -40 0 -40 0 0 -80z"/>
<path d="M660 11260 l0 -80 40 0 40 0 0 80 0 80 -40 0 -40 0 0 -80z"/>
<path d="M16220 11260 l0 -80 40 0 40 0 0 80 0 80 -40 0 -40 0 0 -80z"/>
<path d="M660 11020 l0 -80 40 0 40 0 0 80 0 80 -40 0 -40 0 0 -80z"/>
<path d="M16220 11020 l0 -80 40 0 40 0 0 80 0 80 -40 0 -40 0 0 -80z"/>
<path d="M660 10780 l0 -80 40 0 40 0 0 80 0 80 -40 0 -40 0 0 -80z"/>
<path d="M16220 10780 l0 -80 40 0 40 0 0 80 0 80 -40 0 -40 0 0 -80z"/>
<path d="M660 10540 l0 -80 40 0 40 0 0 80 0 80 -40 0 -40 0 0 -80z"/>
<path d="M16220 10540 l0 -80 40 0 40 0 0 80 0 80 -40 0 -40 0 0 -80z"/>
<path d="M660 10300 l0 -80 40 0 40 0 0 80 0 80 -40 0 -40 0 0 -80z"/>
<path d="M16220 10300 l0 -80 40 0 40 0 0 80 0 80 -40 0 -40 0 0 -80z"/>
<path d="M660 10060 l0 -80 40 0 40 0 0 80 0 80 -40 0 -40 0 0 -80z"/>
<path d="M16220 10060 l0 -80 40 0 40 0 0 80 0 80 -40 0 -40 0 0 -80z"/>
<path d="M660 9820 l0 -80 40 0 40 0 0 80 0 80 -40 0 -40 0 0 -80z"/>
<path d="M16220 9820 l0 -80 40 0 40 0 0 80 0 80 -40 0 -40 0 0 -80z"/>
<path d="M660 9580 l0 -80 40 0 40 0 0 80 0 80 -40 0 -40 0 0 -80z"/>
<path d="M16220 9580 l0 -80 40 0 40 0 0 80 0 80 -40 0 -40 0 0 -80z"/>
<path d="M660 9340 l0 -80 40 0 40 0 0 80 0 80 -40 0 -40 0 0 -80z"/>
<path d="M16220 9340 l0 -80 40 0 40 0 0 80 0 80 -40 0 -40 0 0 -80z"/>
<path d="M660 9100 l0 -80 40 0 40 0 0 80 0 80 -40 0 -40 0 0 -80z"/>
<path d="M16220 9100 l0 -80 40 0 40 0 0 80 0 80 -40 0 -40 0 0 -80z"/>
<path d="M660 8860 l0 -80 40 0 40 0 0 80 0 80 -40 0 -40 0 0 -80z"/>
<path d="M16220 8860 l0 -80 40 0 40 0 0 80 0 80 -40 0 -40 0 0 -80z"/>
<path d="M660 8620 l0 -80 40 0 40 0 0 80 0 80 -40 0 -40 0 0 -80z"/>
<path d="M16220 8620 l0 -80 40 0 40 0 0 80 0 80 -40 0 -40 0 0 -80z"/>
<path d="M1335 8651 c-53 -32 -85 -88 -85 -147 0 -21 5 -24 35 -24 32 0 35 3
45 41 17 64 65 94 124 78 49 -14 67 -38 64 -83 -2 -33 -9 -44 -37 -63 -19 -13
-47 -23 -62 -23 -25 0 -29 -4 -29 -29 0 -26 3 -29 48 -35 150 -20 137 -206
-14 -206 -53 0 -90 29 -104 81 -10 36 -13 39 -47 39 l-36 0 6 -46 c9 -82 65
-131 159 -141 144 -15 247 83 219 207 -9 42 -54 100 -77 100 -6 0 4 17 23 37
33 35 35 40 31 95 -5 62 -27 96 -80 124 -40 21 -146 18 -183 -5z"/>
<path d="M1791 8652 c-19 -9 -43 -29 -54 -43 -61 -84 -62 -361 -1 -454 34 -53
133 -78 213 -55 89 25 122 102 122 285 0 164 -25 230 -103 271 -38 20 -135 18
-177 -4z m157 -75 c32 -30 44 -87 44 -205 -2 -154 -33 -212 -114 -212 -77 0
-113 87 -106 253 5 117 20 156 70 180 38 19 73 13 106 -16z"/>
<path d="M14975 8651 c-53 -32 -85 -88 -85 -147 0 -21 5 -24 35 -24 32 0 35 3
45 41 17 64 65 94 124 78 49 -14 67 -38 64 -83 -2 -33 -9 -44 -37 -63 -19 -13
-47 -23 -62 -23 -25 0 -29 -4 -29 -29 0 -26 3 -29 48 -35 150 -20 137 -206
-14 -206 -53 0 -90 29 -104 81 -10 36 -13 39 -47 39 l-36 0 6 -46 c9 -82 65
-131 159 -141 144 -15 247 83 219 207 -9 42 -54 100 -77 100 -6 0 4 17 23 37
33 35 35 40 31 95 -5 62 -27 96 -80 124 -40 21 -146 18 -183 -5z"/>
<path d="M15431 8652 c-19 -9 -43 -29 -54 -43 -61 -84 -62 -361 -1 -454 34
-53 133 -78 213 -55 89 25 122 102 122 285 0 164 -25 230 -103 271 -38 20
-135 18 -177 -4z m157 -75 c32 -30 44 -87 44 -205 -2 -154 -33 -212 -114 -212
-77 0 -113 87 -106 253 5 117 20 156 70 180 38 19 73 13 106 -16z"/>
<path d="M660 8380 l0 -80 40 0 40 0 0 80 0 80 -40 0 -40 0 0 -80z"/>
<path d="M16220 8380 l0 -80 40 0 40 0 0 80 0 80 -40 0 -40 0 0 -80z"/>
<path d="M660 8140 l0 -80 40 0 40 0 0 80 0 80 -40 0 -40 0 0 -80z"/>
<path d="M16220 8140 l0 -80 40 0 40 0 0 80 0 80 -40 0 -40 0 0 -80z"/>
<path d="M660 7900 l0 -80 40 0 40 0 0 80 0 80 -40 0 -40 0 0 -80z"/>
<path d="M16220 7900 l0 -80 40 0 40 0 0 80 0 80 -40 0 -40 0 0 -80z"/>
<path d="M660 7660 l0 -80 40 0 40 0 0 80 0 80 -40 0 -40 0 0 -80z"/>
<path d="M16220 7660 l0 -80 40 0 40 0 0 80 0 80 -40 0 -40 0 0 -80z"/>
<path d="M660 7420 l0 -80 40 0 40 0 0 80 0 80 -40 0 -40 0 0 -80z"/>
<path d="M16220 7420 l0 -80 40 0 40 0 0 80 0 80 -40 0 -40 0 0 -80z"/>
<path d="M660 7180 l0 -80 40 0 40 0 0 80 0 80 -40 0 -40 0 0 -80z"/>
<path d="M16220 7180 l0 -80 40 0 40 0 0 80 0 80 -40 0 -40 0 0 -80z"/>
<path d="M660 6940 l0 -80 40 0 40 0 0 80 0 80 -40 0 -40 0 0 -80z"/>
<path d="M16220 6940 l0 -80 40 0 40 0 0 80 0 80 -40 0 -40 0 0 -80z"/>
<path d="M660 6700 l0 -80 40 0 40 0 0 80 0 80 -40 0 -40 0 0 -80z"/>
<path d="M16220 6700 l0 -80 40 0 40 0 0 80 0 80 -40 0 -40 0 0 -80z"/>
<path d="M660 6460 l0 -80 40 0 40 0 0 80 0 80 -40 0 -40 0 0 -80z"/>
<path d="M16220 6460 l0 -80 40 0 40 0 0 80 0 80 -40 0 -40 0 0 -80z"/>
<path d="M660 6220 l0 -80 40 0 40 0 0 80 0 80 -40 0 -40 0 0 -80z"/>
<path d="M16220 6220 l0 -80 40 0 40 0 0 80 0 80 -40 0 -40 0 0 -80z"/>
<path d="M660 5980 l0 -80 40 0 40 0 0 80 0 80 -40 0 -40 0 0 -80z"/>
<path d="M16220 5980 l0 -80 40 0 40 0 0 80 0 80 -40 0 -40 0 0 -80z"/>
<path d="M660 5740 l0 -80 40 0 40 0 0 80 0 80 -40 0 -40 0 0 -80z"/>
<path d="M16220 5740 l0 -80 40 0 40 0 0 80 0 80 -40 0 -40 0 0 -80z"/>
<path d="M660 5500 l0 -80 40 0 40 0 0 80 0 80 -40 0 -40 0 0 -80z"/>
<path d="M16220 5500 l0 -80 40 0 40 0 0 80 0 80 -40 0 -40 0 0 -80z"/>
<path d="M660 5260 l0 -80 40 0 40 0 0 80 0 80 -40 0 -40 0 0 -80z"/>
<path d="M16220 5260 l0 -80 40 0 40 0 0 80 0 80 -40 0 -40 0 0 -80z"/>
<path d="M660 5020 l0 -80 40 0 40 0 0 80 0 80 -40 0 -40 0 0 -80z"/>
<path d="M16220 5020 l0 -80 40 0 40 0 0 80 0 80 -40 0 -40 0 0 -80z"/>
<path d="M660 4780 l0 -80 40 0 40 0 0 80 0 80 -40 0 -40 0 0 -80z"/>
<path d="M16220 4780 l0 -80 40 0 40 0 0 80 0 80 -40 0 -40 0 0 -80z"/>
<path d="M660 4540 l0 -80 40 0 40 0 0 80 0 80 -40 0 -40 0 0 -80z"/>
<path d="M16220 4540 l0 -80 40 0 40 0 0 80 0 80 -40 0 -40 0 0 -80z"/>
<path d="M660 4300 l0 -80 40 0 40 0 0 80 0 80 -40 0 -40 0 0 -80z"/>
<path d="M16220 4300 l0 -80 40 0 40 0 0 80 0 80 -40 0 -40 0 0 -80z"/>
<path d="M660 4060 l0 -80 40 0 40 0 0 80 0 80 -40 0 -40 0 0 -80z"/>
<path d="M16220 4060 l0 -80 40 0 40 0 0 80 0 80 -40 0 -40 0 0 -80z"/>
<path d="M8611 4092 c-19 -9 -43 -29 -54 -43 -61 -84 -62 -361 -1 -454 34 -53
133 -78 213 -55 89 25 122 102 122 285 0 164 -25 230 -103 271 -38 20 -135 18
-177 -4z m157 -75 c32 -30 44 -87 44 -205 -2 -154 -33 -212 -114 -212 -77 0
-113 87 -106 253 5 117 20 156 70 180 38 19 73 13 106 -16z"/>
<path d="M8125 4088 c-7 -22 -45 -246 -45 -268 0 -30 54 -27 92 5 60 51 160
19 186 -59 34 -104 -68 -202 -161 -155 -29 15 -56 50 -57 72 0 13 -9 17 -40
17 -34 0 -40 -3 -40 -21 0 -71 73 -137 162 -146 90 -9 168 29 205 100 24 48
21 146 -8 199 -42 75 -142 108 -225 73 l-35 -14 7 37 c3 20 9 53 13 72 l7 35
112 3 112 3 0 29 0 30 -140 0 c-104 0 -142 -3 -145 -12z"/>
<path d="M660 3820 l0 -80 40 0 40 0 0 80 0 80 -40 0 -40 0 0 -80z"/>
<path d="M16220 3820 l0 -80 40 0 40 0 0 80 0 80 -40 0 -40 0 0 -80z"/>
<path d="M660 3580 l0 -80 40 0 40 0 0 80 0 80 -40 0 -40 0 0 -80z"/>
<path d="M16220 3580 l0 -80 40 0 40 0 0 80 0 80 -40 0 -40 0 0 -80z"/>
<path d="M660 3340 l0 -80 40 0 40 0 0 80 0 80 -40 0 -40 0 0 -80z"/>
<path d="M16220 3340 l0 -80 40 0 40 0 0 80 0 80 -40 0 -40 0 0 -80z"/>
<path d="M660 3100 l0 -80 80 0 80 0 0 40 0 40 -40 0 -40 0 0 40 0 40 -40 0
-40 0 0 -80z"/>
<path d="M16220 3140 l0 -40 -40 0 -40 0 0 -40 0 -40 80 0 80 0 0 80 0 80 -40
0 -40 0 0 -40z"/>
<path d="M900 3060 l0 -40 80 0 80 0 0 40 0 40 -80 0 -80 0 0 -40z"/>
<path d="M1140 3060 l0 -40 80 0 80 0 0 40 0 40 -80 0 -80 0 0 -40z"/>
<path d="M1370 3060 l0 -40 85 0 85 0 0 40 0 40 -85 0 -85 0 0 -40z"/>
<path d="M1610 3060 l0 -40 80 0 80 0 0 40 0 40 -80 0 -80 0 0 -40z"/>
<path d="M1850 3060 l0 -40 80 0 80 0 0 40 0 40 -80 0 -80 0 0 -40z"/>
<path d="M2090 3060 l0 -40 80 0 80 0 0 40 0 40 -80 0 -80 0 0 -40z"/>
<path d="M2330 3060 l0 -40 80 0 80 0 0 40 0 40 -80 0 -80 0 0 -40z"/>
<path d="M2560 3060 l0 -40 85 0 85 0 0 40 0 40 -85 0 -85 0 0 -40z"/>
<path d="M2800 3060 l0 -40 80 0 80 0 0 40 0 40 -80 0 -80 0 0 -40z"/>
<path d="M3040 3060 l0 -40 80 0 80 0 0 40 0 40 -80 0 -80 0 0 -40z"/>
<path d="M3280 3060 l0 -40 80 0 80 0 0 40 0 40 -80 0 -80 0 0 -40z"/>
<path d="M3520 3060 l0 -40 80 0 80 0 0 40 0 40 -80 0 -80 0 0 -40z"/>
<path d="M3750 3060 l0 -40 85 0 85 0 0 40 0 40 -85 0 -85 0 0 -40z"/>
<path d="M3990 3060 l0 -40 85 0 85 0 0 40 0 40 -85 0 -85 0 0 -40z"/>
<path d="M4230 3060 l0 -40 80 0 80 0 0 40 0 40 -80 0 -80 0 0 -40z"/>
<path d="M4470 3060 l0 -40 80 0 80 0 0 40 0 40 -80 0 -80 0 0 -40z"/>
<path d="M4710 3060 l0 -40 80 0 80 0 0 40 0 40 -80 0 -80 0 0 -40z"/>
<path d="M4950 3060 l0 -40 80 0 80 0 0 40 0 40 -80 0 -80 0 0 -40z"/>
<path d="M5180 3060 l0 -40 85 0 85 0 0 40 0 40 -85 0 -85 0 0 -40z"/>
<path d="M5420 3060 l0 -40 80 0 80 0 0 40 0 40 -80 0 -80 0 0 -40z"/>
<path d="M5660 3060 l0 -40 80 0 80 0 0 40 0 40 -80 0 -80 0 0 -40z"/>
<path d="M5900 3060 l0 -40 80 0 80 0 0 40 0 40 -80 0 -80 0 0 -40z"/>
<path d="M6140 3060 l0 -40 80 0 80 0 0 40 0 40 -80 0 -80 0 0 -40z"/>
<path d="M6370 3060 l0 -40 85 0 85 0 0 40 0 40 -85 0 -85 0 0 -40z"/>
<path d="M6610 3060 l0 -40 85 0 85 0 0 40 0 40 -85 0 -85 0 0 -40z"/>
<path d="M6850 3060 l0 -40 80 0 80 0 0 40 0 40 -80 0 -80 0 0 -40z"/>
<path d="M7090 3060 l0 -40 80 0 80 0 0 40 0 40 -80 0 -80 0 0 -40z"/>
<path d="M7330 3060 l0 -40 80 0 80 0 0 40 0 40 -80 0 -80 0 0 -40z"/>
<path d="M7570 3060 l0 -40 80 0 80 0 0 40 0 40 -80 0 -80 0 0 -40z"/>
<path d="M7800 3060 l0 -40 85 0 85 0 0 40 0 40 -85 0 -85 0 0 -40z"/>
<path d="M8040 3060 l0 -40 80 0 80 0 0 40 0 40 -80 0 -80 0 0 -40z"/>
<path d="M8280 3060 l0 -40 80 0 80 0 0 40 0 40 -80 0 -80 0 0 -40z"/>
<path d="M8520 3060 l0 -40 80 0 80 0 0 40 0 40 -80 0 -80 0 0 -40z"/>
<path d="M8760 3060 l0 -40 80 0 80 0 0 40 0 40 -80 0 -80 0 0 -40z"/>
<path d="M8990 3060 l0 -40 85 0 85 0 0 40 0 40 -85 0 -85 0 0 -40z"/>
<path d="M9230 3060 l0 -40 80 0 80 0 0 40 0 40 -80 0 -80 0 0 -40z"/>
<path d="M9470 3060 l0 -40 80 0 80 0 0 40 0 40 -80 0 -80 0 0 -40z"/>
<path d="M9710 3060 l0 -40 80 0 80 0 0 40 0 40 -80 0 -80 0 0 -40z"/>
<path d="M9950 3060 l0 -40 80 0 80 0 0 40 0 40 -80 0 -80 0 0 -40z"/>
<path d="M10180 3060 l0 -40 85 0 85 0 0 40 0 40 -85 0 -85 0 0 -40z"/>
<path d="M10420 3060 l0 -40 85 0 85 0 0 40 0 40 -85 0 -85 0 0 -40z"/>
<path d="M10660 3060 l0 -40 80 0 80 0 0 40 0 40 -80 0 -80 0 0 -40z"/>
<path d="M10900 3060 l0 -40 80 0 80 0 0 40 0 40 -80 0 -80 0 0 -40z"/>
<path d="M11140 3060 l0 -40 80 0 80 0 0 40 0 40 -80 0 -80 0 0 -40z"/>
<path d="M11380 3060 l0 -40 80 0 80 0 0 40 0 40 -80 0 -80 0 0 -40z"/>
<path d="M11610 3060 l0 -40 85 0 85 0 0 40 0 40 -85 0 -85 0 0 -40z"/>
<path d="M11850 3060 l0 -40 80 0 80 0 0 40 0 40 -80 0 -80 0 0 -40z"/>
<path d="M12090 3060 l0 -40 80 0 80 0 0 40 0 40 -80 0 -80 0 0 -40z"/>
<path d="M12330 3060 l0 -40 80 0 80 0 0 40 0 40 -80 0 -80 0 0 -40z"/>
<path d="M12570 3060 l0 -40 80 0 80 0 0 40 0 40 -80 0 -80 0 0 -40z"/>
<path d="M12800 3060 l0 -40 85 0 85 0 0 40 0 40 -85 0 -85 0 0 -40z"/>
<path d="M13040 3060 l0 -40 85 0 85 0 0 40 0 40 -85 0 -85 0 0 -40z"/>
<path d="M13280 3060 l0 -40 80 0 80 0 0 40 0 40 -80 0 -80 0 0 -40z"/>
<path d="M13520 3060 l0 -40 80 0 80 0 0 40 0 40 -80 0 -80 0 0 -40z"/>
<path d="M13760 3060 l0 -40 80 0 80 0 0 40 0 40 -80 0 -80 0 0 -40z"/>
<path d="M14000 3060 l0 -40 80 0 80 0 0 40 0 40 -80 0 -80 0 0 -40z"/>
<path d="M14230 3060 l0 -40 85 0 85 0 0 40 0 40 -85 0 -85 0 0 -40z"/>
<path d="M14470 3060 l0 -40 80 0 80 0 0 40 0 40 -80 0 -80 0 0 -40z"/>
<path d="M14710 3060 l0 -40 80 0 80 0 0 40 0 40 -80 0 -80 0 0 -40z"/>
<path d="M14950 3060 l0 -40 80 0 80 0 0 40 0 40 -80 0 -80 0 0 -40z"/>
<path d="M15190 3060 l0 -40 80 0 80 0 0 40 0 40 -80 0 -80 0 0 -40z"/>
<path d="M15420 3060 l0 -40 85 0 85 0 0 40 0 40 -85 0 -85 0 0 -40z"/>
<path d="M15660 3060 l0 -40 80 0 80 0 0 40 0 40 -80 0 -80 0 0 -40z"/>
<path d="M15900 3060 l0 -40 80 0 80 0 0 40 0 40 -80 0 -80 0 0 -40z"/>
</g>
</svg>
